<svg xmlns="http://www.w3.org/2000/svg" xmlns:xlink="http://www.w3.org/1999/xlink" viewBox="0 0 64 64"><defs><filter id="a" width="1.078" height="1.067" x="-.039" y="-.033" color-interpolation-filters="sRGB"><feGaussianBlur stdDeviation=".206"/></filter><filter id="b" width="1.113" height="1.225" x="-.056" y="-.113" color-interpolation-filters="sRGB"><feGaussianBlur stdDeviation=".281"/></filter><clipPath id="g_pageclip"><path d="M13 4c-2.77 0-5 2.23-5 5v46c0 2.77 2.23 5 5 5h38c2.77 0 5-2.23 5-5V16L44 4z"/></clipPath>
<mask id="g_holes">
      <rect x="-60" y="-60" width="120" height="120" fill="#ffffff" id="g_rect1240"/>
      <circle id="g_hole" cy="-40" r="3" cx="0"/>
      <use xlink:href="#g_hole" transform="rotate(72)" id="g_use1243"/>
      <use xlink:href="#g_hole" transform="rotate(144)" id="g_use1245"/>
      <use xlink:href="#g_hole" transform="rotate(-144)" id="g_use1247"/>
      <use xlink:href="#g_hole" transform="rotate(-72)" id="g_use1249"/>
    </mask>
    
<mask id="g_holes-3">
      <rect x="-60" y="-60" width="120" height="120" fill="#ffffff" id="g_rect4455"/>
      <circle id="g_hole-6" cy="-40" r="3" cx="0"/>
      <use xlink:href="#g_hole-6" transform="rotate(72)" id="g_use4458"/>
      <use xlink:href="#g_hole-6" transform="rotate(144)" id="g_use4460"/>
      <use xlink:href="#g_hole-6" transform="rotate(-144)" id="g_use4462"/>
      <use xlink:href="#g_hole-6" transform="rotate(-72)" id="g_use4464"/>
    </mask>
    
<mask id="g_holes-36">
      <rect x="-60" y="-60" width="120" height="120" fill="#ffffff" id="g_rect946"/>
      <circle id="g_hole-7" cy="-40" r="3" cx="0"/>
      <use xlink:href="#g_hole-7" transform="rotate(72)" id="g_use949"/>
      <use xlink:href="#g_hole-7" transform="rotate(144)" id="g_use951"/>
      <use xlink:href="#g_hole-7" transform="rotate(-144)" id="g_use953"/>
      <use xlink:href="#g_hole-7" transform="rotate(-72)" id="g_use955"/>
    </mask>
    
<mask id="g_holes-9">
      <rect x="-60" y="-60" width="120" height="120" fill="#ffffff" id="g_rect4023"/>
      <circle id="g_hole-3" cy="-40" r="3" cx="0"/>
      <use xlink:href="#g_hole-3" transform="rotate(72)" id="g_use4026"/>
      <use xlink:href="#g_hole-3" transform="rotate(144)" id="g_use4028"/>
      <use xlink:href="#g_hole-3" transform="rotate(-144)" id="g_use4030"/>
      <use xlink:href="#g_hole-3" transform="rotate(-72)" id="g_use4032"/>
    </mask>
    
<mask id="g_holes-1">
      <rect x="-60" y="-60" width="120" height="120" fill="#ffffff" id="g_rect5879"/>
      <circle id="g_hole-8" cy="-40" r="3" cx="0"/>
      <use xlink:href="#g_hole-8" transform="rotate(72)" id="g_use5882"/>
      <use xlink:href="#g_hole-8" transform="rotate(144)" id="g_use5884"/>
      <use xlink:href="#g_hole-8" transform="rotate(-144)" id="g_use5886"/>
      <use xlink:href="#g_hole-8" transform="rotate(-72)" id="g_use5888"/>
    </mask>
  
<linearGradient id="g_a" gradientUnits="userSpaceOnUse" x1="36" x2="60" y1="68" y2="68">
    <stop offset="0" stop-color="#ed336c" id="g_stop2"/>
    <stop offset="1" stop-color="#ffa348" id="g_stop4"/>
  </linearGradient>
  
<linearGradient id="g_b" gradientTransform="matrix(0 1 -1 0 144 -32)" gradientUnits="userSpaceOnUse" x1="72" x2="96" y1="68" y2="68">
    <stop offset="0" stop-color="#404ce6" id="g_stop7"/>
    <stop offset="1" stop-color="#c061cb" id="g_stop9"/>
  </linearGradient>
  
<linearGradient id="g_c" gradientUnits="userSpaceOnUse" x1="68.84919" x2="95.257637" y1="84" y2="84">
    <stop offset="0" stop-color="#33d1c6" id="g_stop12"/>
    <stop offset="1" stop-color="#1c25d8" id="g_stop14"/>
  </linearGradient>
  
</defs>
<path d="M3.44 1.354a1.32 1.32 0 0 0-1.323 1.323v12.171c0 .733.59 1.323 1.323 1.323h10.053a1.32 1.32 0 0 0 1.323-1.323V4.53l-3.175-3.175z" filter="url(#a)" opacity=".15" style="paint-order:stroke fill markers" transform="scale(3.7796)"/>
<g fill-rule="evenodd"><path fill="#726397" d="M13 4c-2.77 0-5 2.23-5 5v46c0 2.77 2.23 5 5 5h38c2.77 0 5-2.23 5-5V16L44 4z" style="paint-order:stroke fill markers"/><path fill="#fff" opacity=".35" d="m14.816 4.233-3.175-3.175V2.91c0 .733.59 1.323 1.323 1.323z" style="paint-order:stroke fill markers" transform="scale(3.7796)"/></g>
<g transform="matrix(0.5 0 0 0.5 0 0)"><path d="M 57.459127,103.99633 56.170891,49.348736 q -5.625875,2.108822 -8.788225,6.599994 -3.127056,4.492932 -3.127056,11.172338 0,1.522948 0.15705,2.500585 0.194117,0.937061 0.389998,1.522948 0.195883,0.54705 0.352941,0.859412 0.194119,0.312349 0.194119,0.547048 -2.069999,0 -3.670586,-0.389998 -1.602351,-0.430588 -2.696468,-1.328824 -1.055291,-0.896462 -1.641174,-2.382347 -0.547058,-1.482349 -0.547058,-3.670585 0,-2.655871 1.131175,-5.234107 1.171764,-2.576472 3.164113,-4.882944 2.031175,-2.302935 4.727643,-4.256459 2.735292,-1.953535 5.819994,-3.359997 3.123526,-1.445297 6.483523,-2.225297 3.398821,-0.822349 6.758818,-0.822349 0.898233,0 1.641174,0.03887 0.779999,0.03887 1.559997,0.116494 L 68.784988,93.371105 85.620264,44.386454 H 91.20555 L 68.980869,103.99815 H 57.457353 Z" fill="#ffffff" id="g_path2018" style="stroke-width:1.7647"/>
</g>
<path d="M43.998 10.999v.586c0 3 2.23 5.416 5 5.416h7v-1.002h-7a4.99 4.99 0 0 1-5.004-5z" filter="url(#b)" opacity=".1" style="paint-order:stroke fill markers"/>
</svg>
