<?xml version='1.0' encoding='UTF-8'?>
<!-- Created with Inkscape (http://www.inkscape.org/) --><svg xmlns="http://www.w3.org/2000/svg" xmlns:xlink="http://www.w3.org/1999/xlink" id="svg1" width="128" height="128" version="1.1" viewBox="0 0 128 128">
 <defs id="defs1"> <linearGradient id="e" x1="7.937" x2="7.937" y1="15.081" y2="1.852" gradientTransform="matrix(7.5589 0 0 7.5589 .00028597 .062284)" gradientUnits="userSpaceOnUse"> <stop id="stop11" stop-color="#f1efeb" offset="0"/> <stop id="stop12" stop-color="#f7f6f4" offset="1"/> </linearGradient> <filter id="filter2" x="-.048" y="-.048" width="1.096" height="1.096" color-interpolation-filters="sRGB"> <feGaussianBlur id="feGaussianBlur2" stdDeviation="2.24"/> </filter> <linearGradient id="blackTileGradient" x1="0.5" y1="1" x2="0.5" y2="0"><stop offset="0" stop-color="#363636"/><stop offset="1" stop-color="#525252"/></linearGradient></defs> <rect id="rect12-7" x="8" y="10.624" width="112" height="112" rx="26" ry="26" filter="url(#filter2)" opacity=".25" stroke-width="1.9999"/> <rect id="rect12" x="8" y="8" width="112" height="112" rx="26" ry="26" fill="url(#blackTileGradient)" stroke-width="1.9999"/> <g id="g1">
  <!--LOGO--><g id="logo-vector" transform="translate(16 16) scale(0.75)"><g fill="#e03a3a"><path d="M9 31H41V36H33V87H41V92H9V87H17V36H9Z"/><path d="M48 31H80V36H72V87H80V92H48V87H56V36H48Z"/><path d="M87 31H119V36H111V87H119V92H87V87H95V36H87Z"/></g><path d="M36.07 93.31V76.85H42Q43.36 84.66 48.4 88.52Q53.44 92.38 62.36 92.38Q69.59 92.38 73.37 89.63Q77.15 86.89 77.15 81.59Q77.15 77.41 74.59 75.08Q72.02 72.76 63.99 70.76L53.53 68.21Q43.31 65.6 39.15 60.98Q35 56.35 35 47.8Q35 37.48 41.89 31.74Q48.77 26 61.19 26Q67.3 26 73.91 27.02Q80.52 28.05 87.61 30.09V45.43H81.68Q80.33 38.27 75.75 34.95Q71.18 31.62 62.73 31.62Q55.82 31.62 52.3 34.02Q48.77 36.41 48.77 41.15Q48.77 45.48 51.2 47.73Q53.63 49.98 63.1 52.4L73.56 54.96Q83.27 57.38 87.64 62.49Q92 67.6 92 76.57Q92 87.08 84.72 92.54Q77.43 98 63.29 98Q56.47 98 49.75 96.84Q43.03 95.68 36.07 93.31Z" fill="#f2f2f7"/></g><!--/LOGO-->
 </g>
</svg>