<?xml version="1.0" encoding="UTF-8"?>
<svg height="16px" viewBox="0 0 16 16" width="16px" xmlns="http://www.w3.org/2000/svg">
    <defs id="defs3051">
      <style type="text/css" id="current-color-scheme">
        .ColorScheme-Text { color:#232629; }
      </style>
    </defs>
    <path class="ColorScheme-Text" d="m 3.992188 3 c -0.554688 0 -1 0.445312 -1 1 s 0.445312 1 1 1 c 0.554687 0 1 -0.445312 1 -1 s -0.445313 -1 -1 -1 z m 4 0 c -0.554688 0 -1 0.445312 -1 1 s 0.445312 1 1 1 c 0.554687 0 1 -0.445312 1 -1 s -0.445313 -1 -1 -1 z m 4 0 c -0.554688 0 -1 0.445312 -1 1 s 0.445312 1 1 1 c 0.554687 0 1 -0.445312 1 -1 s -0.445313 -1 -1 -1 z m -8 4 c -0.554688 0 -1 0.445312 -1 1 s 0.445312 1 1 1 c 0.554687 0 1 -0.445312 1 -1 s -0.445313 -1 -1 -1 z m 4 0 c -0.554688 0 -1 0.445312 -1 1 s 0.445312 1 1 1 c 0.554687 0 1 -0.445312 1 -1 s -0.445313 -1 -1 -1 z m 4 0 c -0.554688 0 -1 0.445312 -1 1 s 0.445312 1 1 1 c 0.554687 0 1 -0.445312 1 -1 s -0.445313 -1 -1 -1 z m -8 4 c -0.554688 0 -1 0.445312 -1 1 s 0.445312 1 1 1 c 0.554687 0 1 -0.445312 1 -1 s -0.445313 -1 -1 -1 z m 4 0 c -0.554688 0 -1 0.445312 -1 1 s 0.445312 1 1 1 c 0.554687 0 1 -0.445312 1 -1 s -0.445313 -1 -1 -1 z m 4 0 c -0.554688 0 -1 0.445312 -1 1 s 0.445312 1 1 1 c 0.554687 0 1 -0.445312 1 -1 s -0.445313 -1 -1 -1 z m 0 0" fill="currentColor"/>
</svg>
